<?xml version="1.0" encoding="utf-8"?>
<!-- Generator: Adobe Illustrator 22.1.0, SVG Export Plug-In . SVG Version: 6.00 Build 0)  -->
<svg version="1.1" xmlns="http://www.w3.org/2000/svg" xmlns:xlink="http://www.w3.org/1999/xlink" x="0px" y="0px"
	 viewBox="0 0 161.5 161.5" style="enable-background:new 0 0 161.5 161.5;" xml:space="preserve">
<style type="text/css">
	.st0{fill:#565EC1;}
	.st1{opacity:0.4;fill:#FFFFFF;enable-background:new    ;}
	.st2{opacity:0.71;fill:#565EC1;enable-background:new    ;}
	.st3{fill:#FFFFFF;}
</style>
<g id="圖層_1">
	<circle class="st0" cx="80.8" cy="80.8" r="80.8"/>
	<circle class="st1" cx="80.8" cy="80.8" r="65.2"/>
	<g id="airplane">
	</g>
	<g id="cloud1">
	</g>
	<g id="cloud2">
	</g>
	<g id="cloud3">
	</g>
</g>
<g id="圖層_2">
	<circle class="st2" cx="80.8" cy="80.8" r="80.8"/>
	<g>
		<g>
			<path class="st3" d="M82.9,73.7h-4.2c-0.7,0-1.2-0.5-1.2-1.2V57.7c0-0.7,0.5-1.2,1.2-1.2h4.2c0.7,0,1.2,0.5,1.2,1.2v14.8
				C84.1,73.2,83.5,73.7,82.9,73.7z"/>
			<path class="st3" d="M80,48.7l-9.5,8.4c-0.7,0.7-0.3,1.9,0.7,1.9h19c1,0,1.4-1.2,0.7-1.9l-9.5-8.4C81.1,48.4,80.4,48.4,80,48.7z"
				/>
		</g>
		<g id="cloud2_2_">
			<g>
				<circle class="st3" cx="74.3" cy="94.6" r="13"/>
				<circle class="st3" cx="90.9" cy="99.6" r="8.3"/>
				<path class="st3" d="M100.2,113.5h-39c-3.2,0-5.8-3.1-5.8-7l0,0c0-3.9,2.6-7,5.8-7h39c3.2,0,5.8,3.1,5.8,7l0,0
					C106,110.4,103.4,113.5,100.2,113.5z"/>
			</g>
		</g>
	</g>
</g>
</svg>
